<svg xmlns="http://www.w3.org/2000/svg" viewBox="0 0 1090 100">
  <defs>
    <linearGradient id="deepslate" x1="0%" y1="0%" x2="0%" y2="100%">
      <stop offset="0%" style="stop-color:#4a4a4a"/>
      <stop offset="50%" style="stop-color:#3d3d3d"/>
      <stop offset="100%" style="stop-color:#2d2d2d"/>
    </linearGradient>
    <linearGradient id="highlight" x1="0%" y1="0%" x2="0%" y2="100%">
      <stop offset="0%" style="stop-color:#6a6a6a"/>
      <stop offset="100%" style="stop-color:#4a4a4a"/>
    </linearGradient>
  </defs>
  
  <g transform="translate(10, 10)">
    <!-- ============ DOCKER ============ -->
    
    <!-- D -->
    <g transform="translate(0, 0)">
      <!-- Shadow -->
      <rect x="3" y="3" width="20" height="74" fill="#1a1a1a"/>
      <rect x="23" y="3" width="10" height="10" fill="#1a1a1a"/>
      <rect x="33" y="13" width="10" height="10" fill="#1a1a1a"/>
      <rect x="43" y="23" width="10" height="34" fill="#1a1a1a"/>
      <rect x="33" y="57" width="10" height="10" fill="#1a1a1a"/>
      <rect x="23" y="67" width="10" height="10" fill="#1a1a1a"/>
      <!-- Main -->
      <rect x="0" y="0" width="20" height="74" fill="url(#deepslate)"/>
      <rect x="20" y="0" width="10" height="10" fill="url(#deepslate)"/>
      <rect x="30" y="10" width="10" height="10" fill="url(#deepslate)"/>
      <rect x="40" y="20" width="10" height="34" fill="url(#deepslate)"/>
      <rect x="30" y="54" width="10" height="10" fill="url(#deepslate)"/>
      <rect x="20" y="64" width="10" height="10" fill="url(#deepslate)"/>
      <!-- Highlight -->
      <rect x="0" y="0" width="30" height="6" fill="url(#highlight)"/>
    </g>
    
    <!-- O -->
    <g transform="translate(60, 0)">
      <!-- Shadow -->
      <rect x="13" y="3" width="24" height="10" fill="#1a1a1a"/>
      <rect x="3" y="13" width="10" height="54" fill="#1a1a1a"/>
      <rect x="37" y="13" width="10" height="54" fill="#1a1a1a"/>
      <rect x="13" y="67" width="24" height="10" fill="#1a1a1a"/>
      <!-- Main -->
      <rect x="10" y="0" width="24" height="10" fill="url(#deepslate)"/>
      <rect x="0" y="10" width="10" height="54" fill="url(#deepslate)"/>
      <rect x="34" y="10" width="10" height="54" fill="url(#deepslate)"/>
      <rect x="10" y="64" width="24" height="10" fill="url(#deepslate)"/>
      <!-- Highlight -->
      <rect x="10" y="0" width="24" height="6" fill="url(#highlight)"/>
    </g>
    
    <!-- C -->
    <g transform="translate(115, 0)">
      <!-- Shadow -->
      <rect x="13" y="3" width="34" height="10" fill="#1a1a1a"/>
      <rect x="3" y="13" width="10" height="54" fill="#1a1a1a"/>
      <rect x="13" y="67" width="34" height="10" fill="#1a1a1a"/>
      <rect x="37" y="13" width="10" height="10" fill="#1a1a1a"/>
      <rect x="37" y="57" width="10" height="10" fill="#1a1a1a"/>
      <!-- Main -->
      <rect x="10" y="0" width="34" height="10" fill="url(#deepslate)"/>
      <rect x="0" y="10" width="10" height="54" fill="url(#deepslate)"/>
      <rect x="10" y="64" width="34" height="10" fill="url(#deepslate)"/>
      <rect x="34" y="10" width="10" height="10" fill="url(#deepslate)"/>
      <rect x="34" y="54" width="10" height="10" fill="url(#deepslate)"/>
      <!-- Highlight -->
      <rect x="10" y="0" width="34" height="6" fill="url(#highlight)"/>
    </g>
    
    <!-- K -->
    <g transform="translate(170, 0)">
      <!-- Shadow -->
      <rect x="3" y="3" width="20" height="74" fill="#1a1a1a"/>
      <rect x="23" y="23" width="10" height="10" fill="#1a1a1a"/>
      <rect x="33" y="13" width="10" height="10" fill="#1a1a1a"/>
      <rect x="43" y="3" width="10" height="10" fill="#1a1a1a"/>
      <rect x="23" y="43" width="10" height="10" fill="#1a1a1a"/>
      <rect x="33" y="53" width="10" height="10" fill="#1a1a1a"/>
      <rect x="43" y="63" width="10" height="14" fill="#1a1a1a"/>
      <!-- Main -->
      <rect x="0" y="0" width="20" height="74" fill="url(#deepslate)"/>
      <rect x="20" y="20" width="10" height="10" fill="url(#deepslate)"/>
      <rect x="30" y="10" width="10" height="10" fill="url(#deepslate)"/>
      <rect x="40" y="0" width="10" height="10" fill="url(#deepslate)"/>
      <rect x="20" y="40" width="10" height="10" fill="url(#deepslate)"/>
      <rect x="30" y="50" width="10" height="10" fill="url(#deepslate)"/>
      <rect x="40" y="60" width="10" height="14" fill="url(#deepslate)"/>
      <!-- Highlight -->
      <rect x="0" y="0" width="20" height="6" fill="url(#highlight)"/>
      <rect x="40" y="0" width="10" height="6" fill="url(#highlight)"/>
    </g>
    
    <!-- E -->
    <g transform="translate(230, 0)">
      <!-- Shadow -->
      <rect x="3" y="3" width="20" height="74" fill="#1a1a1a"/>
      <rect x="23" y="3" width="24" height="10" fill="#1a1a1a"/>
      <rect x="23" y="33" width="20" height="10" fill="#1a1a1a"/>
      <rect x="23" y="67" width="24" height="10" fill="#1a1a1a"/>
      <!-- Main -->
      <rect x="0" y="0" width="20" height="74" fill="url(#deepslate)"/>
      <rect x="20" y="0" width="24" height="10" fill="url(#deepslate)"/>
      <rect x="20" y="30" width="20" height="10" fill="url(#deepslate)"/>
      <rect x="20" y="64" width="24" height="10" fill="url(#deepslate)"/>
      <!-- Highlight -->
      <rect x="0" y="0" width="44" height="6" fill="url(#highlight)"/>
    </g>
    
    <!-- R -->
    <g transform="translate(285, 0)">
      <!-- Shadow -->
      <rect x="3" y="3" width="20" height="74" fill="#1a1a1a"/>
      <rect x="23" y="3" width="14" height="10" fill="#1a1a1a"/>
      <rect x="37" y="13" width="10" height="20" fill="#1a1a1a"/>
      <rect x="23" y="33" width="14" height="10" fill="#1a1a1a"/>
      <rect x="33" y="43" width="10" height="10" fill="#1a1a1a"/>
      <rect x="43" y="53" width="10" height="24" fill="#1a1a1a"/>
      <!-- Main -->
      <rect x="0" y="0" width="20" height="74" fill="url(#deepslate)"/>
      <rect x="20" y="0" width="14" height="10" fill="url(#deepslate)"/>
      <rect x="34" y="10" width="10" height="20" fill="url(#deepslate)"/>
      <rect x="20" y="30" width="14" height="10" fill="url(#deepslate)"/>
      <rect x="30" y="40" width="10" height="10" fill="url(#deepslate)"/>
      <rect x="40" y="50" width="10" height="24" fill="url(#deepslate)"/>
      <!-- Highlight -->
      <rect x="0" y="0" width="34" height="6" fill="url(#highlight)"/>
    </g>
    
    <!-- ============ HYTALE ============ -->
    
    <!-- H -->
    <g transform="translate(365, 0)">
      <!-- Shadow -->
      <rect x="3" y="3" width="20" height="74" fill="#1a1a1a"/>
      <rect x="33" y="3" width="20" height="74" fill="#1a1a1a"/>
      <rect x="23" y="33" width="10" height="10" fill="#1a1a1a"/>
      <!-- Main -->
      <rect x="0" y="0" width="20" height="74" fill="url(#deepslate)"/>
      <rect x="30" y="0" width="20" height="74" fill="url(#deepslate)"/>
      <rect x="20" y="30" width="10" height="10" fill="url(#deepslate)"/>
      <!-- Highlight -->
      <rect x="0" y="0" width="20" height="6" fill="url(#highlight)"/>
      <rect x="30" y="0" width="20" height="6" fill="url(#highlight)"/>
    </g>
    
    <!-- Y -->
    <g transform="translate(425, 0)">
      <!-- Shadow -->
      <rect x="3" y="3" width="20" height="30" fill="#1a1a1a"/>
      <rect x="33" y="3" width="20" height="30" fill="#1a1a1a"/>
      <rect x="18" y="33" width="20" height="44" fill="#1a1a1a"/>
      <!-- Main -->
      <rect x="0" y="0" width="20" height="30" fill="url(#deepslate)"/>
      <rect x="30" y="0" width="20" height="30" fill="url(#deepslate)"/>
      <rect x="15" y="30" width="20" height="44" fill="url(#deepslate)"/>
      <!-- Highlight -->
      <rect x="0" y="0" width="20" height="6" fill="url(#highlight)"/>
      <rect x="30" y="0" width="20" height="6" fill="url(#highlight)"/>
    </g>
    
    <!-- T -->
    <g transform="translate(485, 0)">
      <!-- Shadow -->
      <rect x="3" y="3" width="50" height="10" fill="#1a1a1a"/>
      <rect x="18" y="13" width="20" height="64" fill="#1a1a1a"/>
      <!-- Main -->
      <rect x="0" y="0" width="50" height="10" fill="url(#deepslate)"/>
      <rect x="15" y="10" width="20" height="64" fill="url(#deepslate)"/>
      <!-- Highlight -->
      <rect x="0" y="0" width="50" height="6" fill="url(#highlight)"/>
    </g>
    
    <!-- A -->
    <g transform="translate(545, 0)">
      <!-- Shadow -->
      <rect x="13" y="3" width="24" height="10" fill="#1a1a1a"/>
      <rect x="3" y="13" width="10" height="64" fill="#1a1a1a"/>
      <rect x="37" y="13" width="10" height="64" fill="#1a1a1a"/>
      <rect x="13" y="33" width="24" height="10" fill="#1a1a1a"/>
      <!-- Main -->
      <rect x="10" y="0" width="24" height="10" fill="url(#deepslate)"/>
      <rect x="0" y="10" width="10" height="64" fill="url(#deepslate)"/>
      <rect x="34" y="10" width="10" height="64" fill="url(#deepslate)"/>
      <rect x="10" y="30" width="24" height="10" fill="url(#deepslate)"/>
      <!-- Highlight -->
      <rect x="10" y="0" width="24" height="6" fill="url(#highlight)"/>
    </g>
    
    <!-- L -->
    <g transform="translate(600, 0)">
      <!-- Shadow -->
      <rect x="3" y="3" width="20" height="74" fill="#1a1a1a"/>
      <rect x="23" y="67" width="24" height="10" fill="#1a1a1a"/>
      <!-- Main -->
      <rect x="0" y="0" width="20" height="74" fill="url(#deepslate)"/>
      <rect x="20" y="64" width="24" height="10" fill="url(#deepslate)"/>
      <!-- Highlight -->
      <rect x="0" y="0" width="20" height="6" fill="url(#highlight)"/>
    </g>
    
    <!-- E -->
    <g transform="translate(655, 0)">
      <!-- Shadow -->
      <rect x="3" y="3" width="20" height="74" fill="#1a1a1a"/>
      <rect x="23" y="3" width="24" height="10" fill="#1a1a1a"/>
      <rect x="23" y="33" width="20" height="10" fill="#1a1a1a"/>
      <rect x="23" y="67" width="24" height="10" fill="#1a1a1a"/>
      <!-- Main -->
      <rect x="0" y="0" width="20" height="74" fill="url(#deepslate)"/>
      <rect x="20" y="0" width="24" height="10" fill="url(#deepslate)"/>
      <rect x="20" y="30" width="20" height="10" fill="url(#deepslate)"/>
      <rect x="20" y="64" width="24" height="10" fill="url(#deepslate)"/>
      <!-- Highlight -->
      <rect x="0" y="0" width="44" height="6" fill="url(#highlight)"/>
    </g>
    
    <!-- ============ SERVER ============ -->
    
    <!-- S -->
    <g transform="translate(730, 0)">
      <!-- Shadow -->
      <rect x="13" y="3" width="34" height="10" fill="#1a1a1a"/>
      <rect x="3" y="13" width="10" height="20" fill="#1a1a1a"/>
      <rect x="13" y="33" width="24" height="10" fill="#1a1a1a"/>
      <rect x="37" y="43" width="10" height="20" fill="#1a1a1a"/>
      <rect x="3" y="67" width="34" height="10" fill="#1a1a1a"/>
      <!-- Main -->
      <rect x="10" y="0" width="34" height="10" fill="url(#deepslate)"/>
      <rect x="0" y="10" width="10" height="20" fill="url(#deepslate)"/>
      <rect x="10" y="30" width="24" height="10" fill="url(#deepslate)"/>
      <rect x="34" y="40" width="10" height="20" fill="url(#deepslate)"/>
      <rect x="0" y="64" width="34" height="10" fill="url(#deepslate)"/>
      <!-- Highlight -->
      <rect x="10" y="0" width="34" height="6" fill="url(#highlight)"/>
    </g>
    
    <!-- E -->
    <g transform="translate(785, 0)">
      <!-- Shadow -->
      <rect x="3" y="3" width="20" height="74" fill="#1a1a1a"/>
      <rect x="23" y="3" width="24" height="10" fill="#1a1a1a"/>
      <rect x="23" y="33" width="20" height="10" fill="#1a1a1a"/>
      <rect x="23" y="67" width="24" height="10" fill="#1a1a1a"/>
      <!-- Main -->
      <rect x="0" y="0" width="20" height="74" fill="url(#deepslate)"/>
      <rect x="20" y="0" width="24" height="10" fill="url(#deepslate)"/>
      <rect x="20" y="30" width="20" height="10" fill="url(#deepslate)"/>
      <rect x="20" y="64" width="24" height="10" fill="url(#deepslate)"/>
      <!-- Highlight -->
      <rect x="0" y="0" width="44" height="6" fill="url(#highlight)"/>
    </g>
    
    <!-- R -->
    <g transform="translate(840, 0)">
      <!-- Shadow -->
      <rect x="3" y="3" width="20" height="74" fill="#1a1a1a"/>
      <rect x="23" y="3" width="14" height="10" fill="#1a1a1a"/>
      <rect x="37" y="13" width="10" height="20" fill="#1a1a1a"/>
      <rect x="23" y="33" width="14" height="10" fill="#1a1a1a"/>
      <rect x="33" y="43" width="10" height="10" fill="#1a1a1a"/>
      <rect x="43" y="53" width="10" height="24" fill="#1a1a1a"/>
      <!-- Main -->
      <rect x="0" y="0" width="20" height="74" fill="url(#deepslate)"/>
      <rect x="20" y="0" width="14" height="10" fill="url(#deepslate)"/>
      <rect x="34" y="10" width="10" height="20" fill="url(#deepslate)"/>
      <rect x="20" y="30" width="14" height="10" fill="url(#deepslate)"/>
      <rect x="30" y="40" width="10" height="10" fill="url(#deepslate)"/>
      <rect x="40" y="50" width="10" height="24" fill="url(#deepslate)"/>
      <!-- Highlight -->
      <rect x="0" y="0" width="34" height="6" fill="url(#highlight)"/>
    </g>
    
    <!-- V -->
    <g transform="translate(905, 0)">
      <!-- Shadow -->
      <rect x="3" y="3" width="20" height="44" fill="#1a1a1a"/>
      <rect x="33" y="3" width="20" height="44" fill="#1a1a1a"/>
      <rect x="13" y="47" width="10" height="10" fill="#1a1a1a"/>
      <rect x="33" y="47" width="10" height="10" fill="#1a1a1a"/>
      <rect x="18" y="57" width="20" height="20" fill="#1a1a1a"/>
      <!-- Main -->
      <rect x="0" y="0" width="20" height="44" fill="url(#deepslate)"/>
      <rect x="30" y="0" width="20" height="44" fill="url(#deepslate)"/>
      <rect x="10" y="44" width="10" height="10" fill="url(#deepslate)"/>
      <rect x="30" y="44" width="10" height="10" fill="url(#deepslate)"/>
      <rect x="15" y="54" width="20" height="20" fill="url(#deepslate)"/>
      <!-- Highlight -->
      <rect x="0" y="0" width="20" height="6" fill="url(#highlight)"/>
      <rect x="30" y="0" width="20" height="6" fill="url(#highlight)"/>
    </g>
    
    <!-- E -->
    <g transform="translate(965, 0)">
      <!-- Shadow -->
      <rect x="3" y="3" width="20" height="74" fill="#1a1a1a"/>
      <rect x="23" y="3" width="24" height="10" fill="#1a1a1a"/>
      <rect x="23" y="33" width="20" height="10" fill="#1a1a1a"/>
      <rect x="23" y="67" width="24" height="10" fill="#1a1a1a"/>
      <!-- Main -->
      <rect x="0" y="0" width="20" height="74" fill="url(#deepslate)"/>
      <rect x="20" y="0" width="24" height="10" fill="url(#deepslate)"/>
      <rect x="20" y="30" width="20" height="10" fill="url(#deepslate)"/>
      <rect x="20" y="64" width="24" height="10" fill="url(#deepslate)"/>
      <!-- Highlight -->
      <rect x="0" y="0" width="44" height="6" fill="url(#highlight)"/>
    </g>
    
    <!-- R -->
    <g transform="translate(1020, 0)">
      <!-- Shadow -->
      <rect x="3" y="3" width="20" height="74" fill="#1a1a1a"/>
      <rect x="23" y="3" width="14" height="10" fill="#1a1a1a"/>
      <rect x="37" y="13" width="10" height="20" fill="#1a1a1a"/>
      <rect x="23" y="33" width="14" height="10" fill="#1a1a1a"/>
      <rect x="33" y="43" width="10" height="10" fill="#1a1a1a"/>
      <rect x="43" y="53" width="10" height="24" fill="#1a1a1a"/>
      <!-- Main -->
      <rect x="0" y="0" width="20" height="74" fill="url(#deepslate)"/>
      <rect x="20" y="0" width="14" height="10" fill="url(#deepslate)"/>
      <rect x="34" y="10" width="10" height="20" fill="url(#deepslate)"/>
      <rect x="20" y="30" width="14" height="10" fill="url(#deepslate)"/>
      <rect x="30" y="40" width="10" height="10" fill="url(#deepslate)"/>
      <rect x="40" y="50" width="10" height="24" fill="url(#deepslate)"/>
      <!-- Highlight -->
      <rect x="0" y="0" width="34" height="6" fill="url(#highlight)"/>
    </g>
  </g>
</svg>
